
<svg width="56px" height="37px" viewBox="83 246 56 37" version="1.1" xmlns="http://www.w3.org/2000/svg" xmlns:xlink="http://www.w3.org/1999/xlink">
<defs>
        <rect id="path-1" x="102" y="246" width="18" height="18" rx="3"></rect>
        <mask id="mask-2" maskContentUnits="userSpaceOnUse" maskUnits="objectBoundingBox" x="0" y="0" width="18" height="18" fill="white">
            <use xlink:href="#path-1"></use>
        </mask>
        <rect id="path-3" x="102" y="265" width="18" height="18" rx="3"></rect>
        <mask id="mask-4" maskContentUnits="userSpaceOnUse" maskUnits="objectBoundingBox" x="0" y="0" width="18" height="18" fill="white">
            <use xlink:href="#path-3"></use>
        </mask>
        <rect id="path-5" x="121" y="265" width="18" height="18" rx="3"></rect>
        <mask id="mask-6" maskContentUnits="userSpaceOnUse" maskUnits="objectBoundingBox" x="0" y="0" width="18" height="18" fill="white">
            <use xlink:href="#path-5"></use>
        </mask>
        <rect id="path-7" x="83" y="265" width="18" height="18" rx="3"></rect>
        <mask id="mask-8" maskContentUnits="userSpaceOnUse" maskUnits="objectBoundingBox" x="0" y="0" width="18" height="18" fill="white">
            <use xlink:href="#path-7"></use>
        </mask>
    </defs>
    <use id="Rectangle" stroke="#2F77EB" mask="url(#mask-2)" stroke-width="4" fill="none" xlink:href="#path-1"></use>
    <use id="Rectangle-Copy" stroke="#2F77EB" mask="url(#mask-4)" stroke-width="4" fill="none" xlink:href="#path-3"></use>
    <use id="Rectangle-Copy-3" stroke="#2F77EB" mask="url(#mask-6)" stroke-width="4" fill="none" xlink:href="#path-5"></use>
    <use id="Rectangle-Copy-2" stroke="#2F77EB" mask="url(#mask-8)" stroke-width="4" fill="none" xlink:href="#path-7"></use>
    <polygon id="W" stroke="none" fill="#2F77EB" fill-rule="evenodd" points="107.538 259 105.186 250.6 106.926 250.6 108.534 256.828 110.286 250.6 111.702 250.6 113.466 256.828 115.074 250.6 116.814 250.6 114.462 259 112.578 259 110.994 253.456 109.422 259"></polygon>
    <path d="M111.15,278.168 C110.317996,278.168 109.618003,277.982002 109.05,277.61 C108.481997,277.237998 108.082001,276.732003 107.85,276.092 L109.266,275.264 C109.594002,276.120004 110.237995,276.548 111.198,276.548 C111.662002,276.548 112.001999,276.464001 112.218,276.296 C112.434001,276.127999 112.542,275.916001 112.542,275.66 C112.542,275.363999 112.410001,275.134001 112.146,274.97 C111.881999,274.805999 111.410003,274.628001 110.73,274.436 C110.353998,274.323999 110.036001,274.212001 109.776,274.1 C109.515999,273.987999 109.256001,273.838001 108.996,273.65 C108.735999,273.461999 108.538001,273.224001 108.402,272.936 C108.265999,272.647999 108.198,272.312002 108.198,271.928 C108.198,271.167996 108.467997,270.562002 109.008,270.11 C109.548003,269.657998 110.197996,269.432 110.958,269.432 C111.638003,269.432 112.235997,269.597998 112.752,269.93 C113.268003,270.262002 113.669999,270.723997 113.958,271.316 L112.566,272.12 C112.229998,271.399996 111.694004,271.04 110.958,271.04 C110.613998,271.04 110.344001,271.117999 110.148,271.274 C109.951999,271.430001 109.854,271.631999 109.854,271.88 C109.854,272.144001 109.963999,272.357999 110.184,272.522 C110.404001,272.686001 110.825997,272.863999 111.45,273.056 C111.706001,273.136 111.899999,273.198 112.032,273.242 C112.164001,273.286 112.343999,273.354 112.572,273.446 C112.800001,273.538 112.975999,273.624 113.1,273.704 C113.224001,273.784 113.365999,273.891999 113.526,274.028 C113.686001,274.164001 113.808,274.303999 113.892,274.448 C113.976,274.592001 114.048,274.765999 114.108,274.97 C114.168,275.174001 114.198,275.395999 114.198,275.636 C114.198,276.412004 113.916003,277.027998 113.352,277.484 C112.787997,277.940002 112.054005,278.168 111.15,278.168 Z" id="S" stroke="none" fill="#2F77EB" fill-rule="evenodd"></path>
    <path d="M129.838,269.6 C130.990006,269.6 131.951996,270.003996 132.724,270.812 C133.496004,271.620004 133.882,272.615994 133.882,273.8 C133.882,274.984006 133.496004,275.979996 132.724,276.788 C131.951996,277.596004 130.990006,278 129.838,278 L126.502,278 L126.502,269.6 L129.838,269.6 Z M129.838,276.416 C130.566004,276.416 131.157998,276.174002 131.614,275.69 C132.070002,275.205998 132.298,274.576004 132.298,273.8 C132.298,273.023996 132.070002,272.394002 131.614,271.91 C131.157998,271.425998 130.566004,271.184 129.838,271.184 L128.158,271.184 L128.158,276.416 L129.838,276.416 Z" id="D" stroke="none" fill="#2F77EB" fill-rule="evenodd"></path>
    <path d="M94.172,278 L93.668,276.488 L90.32,276.488 L89.816,278 L88.028,278 L90.968,269.6 L93.02,269.6 L95.972,278 L94.172,278 Z M90.848,274.94 L93.152,274.94 L92,271.508 L90.848,274.94 Z" id="A" stroke="none" fill="#2F77EB" fill-rule="evenodd"></path>
</svg>